<svg xmlns="http://www.w3.org/2000/svg" xmlns:xlink="http://www.w3.org/1999/xlink" width="165" height="163" viewBox="0 0 165 163">
  <defs>
    <clipPath id="clip-path">
      <rect id="Rectangle_2" data-name="Rectangle 2" width="165" height="163" rx="35" transform="translate(-0.708 96)" fill="#fff"/>
    </clipPath>
    <linearGradient id="linear-gradient" x1="0.5" y1="1" x2="0.5" gradientUnits="objectBoundingBox">
      <stop offset="0" stop-color="gray" stop-opacity="0.251"/>
      <stop offset="0.54" stop-color="gray" stop-opacity="0.122"/>
      <stop offset="1" stop-color="gray" stop-opacity="0.102"/>
    </linearGradient>
    <linearGradient id="linear-gradient-3" x1="0.5" y1="1" x2="0.5" gradientUnits="objectBoundingBox">
      <stop offset="0" stop-opacity="0.122"/>
      <stop offset="0.55" stop-opacity="0.09"/>
      <stop offset="1" stop-opacity="0.02"/>
    </linearGradient>
    <linearGradient id="linear-gradient-13" x1="0" y1="0.5" x2="1" y2="0.5" xlink:href="#linear-gradient-3"/>
    <linearGradient id="linear-gradient-19" x1="0" y1="0.5" x2="1" y2="0.5" xlink:href="#linear-gradient"/>
    <linearGradient id="linear-gradient-21" xlink:href="#linear-gradient"/>
  </defs>
  <g id="window" transform="translate(0.708 -96)" clip-path="url(#clip-path)">
    <g id="undraw_welcome_3gvl" transform="translate(0.05 108.159)">
      <rect id="Rectangle_5" data-name="Rectangle 5" width="137.682" height="137.682" transform="translate(12.996)" fill="#6c63ff" opacity="0.2"/>
      <rect id="Rectangle_6" data-name="Rectangle 6" width="96.057" height="112.161" transform="translate(33.714 12.855)" fill="#6c63ff" opacity="0.5"/>
      <rect id="Rectangle_7" data-name="Rectangle 7" width="51.419" height="98.882" transform="translate(112.066 19.776)" fill="url(#linear-gradient)"/>
      <rect id="Rectangle_8" data-name="Rectangle 8" width="51.419" height="98.882" transform="translate(0 20.153)" fill="url(#linear-gradient)"/>
      <rect id="Rectangle_9" data-name="Rectangle 9" width="48.028" height="95.304" transform="translate(113.762 21.283)" fill="#6c63ff"/>
      <rect id="Rectangle_10" data-name="Rectangle 10" width="48.028" height="95.304" transform="translate(49.724 116.587) rotate(180)" fill="#6c63ff"/>
      <rect id="Rectangle_11" data-name="Rectangle 11" width="32.207" height="5.839" transform="translate(9.606 29.947)" fill="url(#linear-gradient-3)"/>
      <rect id="Rectangle_12" data-name="Rectangle 12" width="32.207" height="5.839" transform="translate(121.861 38.799)" fill="url(#linear-gradient-3)"/>
      <rect id="Rectangle_13" data-name="Rectangle 13" width="32.207" height="5.839" transform="translate(121.672 47.84)" fill="url(#linear-gradient-3)"/>
      <rect id="Rectangle_14" data-name="Rectangle 14" width="32.207" height="5.839" transform="translate(121.672 56.881)" fill="url(#linear-gradient-3)"/>
      <rect id="Rectangle_15" data-name="Rectangle 15" width="32.207" height="5.839" transform="translate(121.672 65.921)" fill="url(#linear-gradient-3)"/>
      <rect id="Rectangle_16" data-name="Rectangle 16" width="32.207" height="5.839" transform="translate(121.672 74.962)" fill="url(#linear-gradient-3)"/>
      <rect id="Rectangle_17" data-name="Rectangle 17" width="32.207" height="5.839" transform="translate(121.672 84.003)" fill="url(#linear-gradient-3)"/>
      <rect id="Rectangle_18" data-name="Rectangle 18" width="32.207" height="5.839" transform="translate(121.672 93.043)" fill="url(#linear-gradient-3)"/>
      <rect id="Rectangle_19" data-name="Rectangle 19" width="32.207" height="5.839" transform="translate(121.672 102.084)" fill="url(#linear-gradient-3)"/>
      <rect id="Rectangle_20" data-name="Rectangle 20" width="32.207" height="5.839" transform="translate(121.672 29.947)" fill="url(#linear-gradient-3)"/>
      <rect id="Rectangle_21" data-name="Rectangle 21" width="32.207" height="5.839" transform="translate(9.606 39.176)" fill="url(#linear-gradient-13)"/>
      <rect id="Rectangle_22" data-name="Rectangle 22" width="32.207" height="5.839" transform="translate(9.606 48.028)" fill="url(#linear-gradient-13)"/>
      <rect id="Rectangle_23" data-name="Rectangle 23" width="32.207" height="5.839" transform="translate(9.606 56.881)" fill="url(#linear-gradient-13)"/>
      <rect id="Rectangle_24" data-name="Rectangle 24" width="32.207" height="5.839" transform="translate(9.606 65.921)" fill="url(#linear-gradient-13)"/>
      <rect id="Rectangle_25" data-name="Rectangle 25" width="32.207" height="5.839" transform="translate(9.606 74.962)" fill="url(#linear-gradient-13)"/>
      <rect id="Rectangle_26" data-name="Rectangle 26" width="30.889" height="4.52" transform="translate(10.359 30.701)" fill="#fff"/>
      <rect id="Rectangle_27" data-name="Rectangle 27" width="30.889" height="4.52" transform="translate(10.265 39.553)" fill="#fff"/>
      <rect id="Rectangle_28" data-name="Rectangle 28" width="30.889" height="4.52" transform="translate(10.265 48.594)" fill="#fff"/>
      <rect id="Rectangle_29" data-name="Rectangle 29" width="30.889" height="4.52" transform="translate(10.265 57.634)" fill="#fff"/>
      <rect id="Rectangle_30" data-name="Rectangle 30" width="30.889" height="4.52" transform="translate(10.265 66.675)" fill="#fff"/>
      <rect id="Rectangle_31" data-name="Rectangle 31" width="30.889" height="4.52" transform="translate(10.265 75.715)" fill="#fff"/>
      <rect id="Rectangle_32" data-name="Rectangle 32" width="32.207" height="5.839" transform="translate(9.606 84.003)" fill="url(#linear-gradient-13)"/>
      <rect id="Rectangle_33" data-name="Rectangle 33" width="30.889" height="4.52" transform="translate(10.265 84.756)" fill="#fff"/>
      <rect id="Rectangle_34" data-name="Rectangle 34" width="30.889" height="4.52" transform="translate(10.265 84.756)" fill="#fff"/>
      <rect id="Rectangle_35" data-name="Rectangle 35" width="30.889" height="4.52" transform="translate(10.265 93.797)" fill="#fff"/>
      <rect id="Rectangle_36" data-name="Rectangle 36" width="30.889" height="4.52" transform="translate(10.265 102.837)" fill="#fff"/>
      <rect id="Rectangle_37" data-name="Rectangle 37" width="30.889" height="4.52" transform="translate(122.426 30.512)" fill="#fff"/>
      <rect id="Rectangle_38" data-name="Rectangle 38" width="30.889" height="4.52" transform="translate(122.426 39.553)" fill="#fff"/>
      <rect id="Rectangle_39" data-name="Rectangle 39" width="30.889" height="4.52" transform="translate(122.426 48.594)" fill="#fff"/>
      <rect id="Rectangle_40" data-name="Rectangle 40" width="30.889" height="4.52" transform="translate(122.426 57.634)" fill="#fff"/>
      <rect id="Rectangle_41" data-name="Rectangle 41" width="30.889" height="4.52" transform="translate(122.426 66.675)" fill="#fff"/>
      <rect id="Rectangle_42" data-name="Rectangle 42" width="30.889" height="4.52" transform="translate(122.426 75.715)" fill="#fff"/>
      <rect id="Rectangle_43" data-name="Rectangle 43" width="30.889" height="4.52" transform="translate(122.426 84.756)" fill="#fff"/>
      <rect id="Rectangle_44" data-name="Rectangle 44" width="30.889" height="4.52" transform="translate(122.426 93.797)" fill="#fff"/>
      <rect id="Rectangle_45" data-name="Rectangle 45" width="30.889" height="4.52" transform="translate(122.426 102.837)" fill="#fff"/>
      <rect id="Rectangle_46" data-name="Rectangle 46" width="113.573" height="7.157" transform="translate(24.862 121.484)" fill="url(#linear-gradient-19)"/>
      <rect id="Rectangle_47" data-name="Rectangle 47" width="111.878" height="5.65" transform="translate(25.804 122.237)" fill="#6c63ff"/>
      <rect id="Rectangle_48" data-name="Rectangle 48" width="113.385" height="7.346" transform="translate(25.239 9.417)" fill="url(#linear-gradient)"/>
      <rect id="Rectangle_49" data-name="Rectangle 49" width="111.878" height="5.65" transform="translate(25.804 9.982)" fill="#6c63ff"/>
      <rect id="Rectangle_50" data-name="Rectangle 50" width="54.997" height="95.304" transform="translate(54.432 21.283)" fill="#263238" opacity="0.5"/>
      <path id="Path_1" data-name="Path 1" d="M237.339,177.573c1.318,1.767-.655,3.854-.655,3.854l.332.115c-.488.541-2.415,2.98-9.843,14.013-9.512,14.126-22.329,17.65-22.329,17.65h0a15.821,15.821,0,0,0-5.223-2.7v-1.333A15.633,15.633,0,0,0,210.036,199.1a16.025,16.025,0,0,0,1.721-7.24,16.733,16.733,0,0,0-33.458,0,16.024,16.024,0,0,0,1.722,7.24,15.633,15.633,0,0,0,10.416,10.073v1.333a15.821,15.821,0,0,0-5.223,2.7h0s-12.823-3.528-22.334-17.654c-7.428-11.033-9.355-13.474-9.843-14.013l.331-.115s-1.968-2.087-.655-3.854-8.692-3.854-7.545,0a19.235,19.235,0,0,0,2.624,5.78s20.944,33.032,31.878,38.491a15.15,15.15,0,0,0-.388,3.413v6.423h31.488v-6.423a15.149,15.149,0,0,0-.388-3.413c10.924-5.462,31.878-38.489,31.878-38.489a19.235,19.235,0,0,0,2.624-5.78C246.03,173.718,236.026,175.806,237.339,177.573Z" transform="translate(-113.094 -114.844)" fill="url(#linear-gradient-21)"/>
      <circle id="Ellipse_1" data-name="Ellipse 1" cx="16.021" cy="16.021" r="16.021" transform="translate(65.91 61.855)" fill="#263238"/>
      <circle id="Ellipse_2" data-name="Ellipse 2" cx="15.079" cy="15.079" r="15.079" transform="translate(66.852 65.311)" fill="#f8c198"/>
      <circle id="Ellipse_3" data-name="Ellipse 3" cx="1.885" cy="1.885" r="1.885" transform="translate(74.077 75.205)" fill="#263238"/>
      <circle id="Ellipse_4" data-name="Ellipse 4" cx="1.885" cy="1.885" r="1.885" transform="translate(86.329 75.205)" fill="#263238"/>
      <path id="Path_2" data-name="Path 2" d="M258.357,235.328c0,1.13-1.968,2.985-4.4,2.985s-4.4-1.855-4.4-2.985,1.968-1.1,4.4-1.1S258.357,234.2,258.357,235.328Z" transform="translate(-172.028 -148.029)" fill="#fff"/>
      <circle id="Ellipse_5" data-name="Ellipse 5" cx="0.629" cy="0.629" r="0.629" transform="translate(75.804 76.461)" fill="#fff"/>
      <circle id="Ellipse_6" data-name="Ellipse 6" cx="0.629" cy="0.629" r="0.629" transform="translate(88.212 76.461)" fill="#fff"/>
      <path id="Path_3" data-name="Path 3" d="M250.517,190.22a1.947,1.947,0,0,1-1.842-1.712,2.26,2.26,0,0,1,1.318-2.213.644.644,0,0,1,.277-.072c.316,0,.473.377.574.676a3.78,3.78,0,0,0,1.759,2.26,1.994,1.994,0,0,0,2.578-.654,2.5,2.5,0,0,1-1.055-3.456c.281-.446.718-.825.806-1.345.162-.942-.87-1.627-1.784-1.91-2.637-.816-11.828-.906-12.335,3.029C240.285,188.975,247.623,190.77,250.517,190.22Z" transform="translate(-167.08 -118.2)" fill="#263238"/>
      <ellipse id="Ellipse_7" data-name="Ellipse 7" cx="0.942" cy="2.671" rx="0.942" ry="2.671" transform="translate(65.622 78.413) rotate(-21.53)" fill="#f8c198"/>
      <ellipse id="Ellipse_8" data-name="Ellipse 8" cx="2.671" cy="0.942" rx="2.671" ry="0.942" transform="translate(94.524 82.68) rotate(-68.47)" fill="#f8c198"/>
      <path id="Path_4" data-name="Path 4" d="M278.651,222.76s12.275-3.447,21.385-17.27,9.581-13.86,9.581-13.86l4.869,1.923s-22.617,36.441-32.354,38.327S278.651,222.76,278.651,222.76Z" transform="translate(-187.319 -124.002)" fill="#ff9800"/>
      <path id="Path_5" data-name="Path 5" d="M351.165,184.1s1.883-2.042.629-3.767,8.325-3.767,7.225,0a19.015,19.015,0,0,1-2.513,5.65Z" transform="translate(-229.337 -116.429)" fill="#f8c198"/>
      <path id="Path_6" data-name="Path 6" d="M191.723,222.76s-12.275-3.447-21.385-17.27-9.581-13.86-9.581-13.86l-4.869,1.923s22.619,36.441,32.358,38.327S191.723,222.76,191.723,222.76Z" transform="translate(-119.193 -124.002)" fill="#ff9800"/>
      <path id="Path_7" data-name="Path 7" d="M157.857,184.1s-1.883-2.042-.629-3.767-8.325-3.767-7.225,0a19.016,19.016,0,0,0,2.513,5.65Z" transform="translate(-115.823 -116.429)" fill="#f8c198"/>
      <g id="Group_1" data-name="Group 1" transform="translate(74.013 64.232)" opacity="0.2">
        <path id="Path_8" data-name="Path 8" d="M269.972,184.168c-.09.52-.527.9-.806,1.345a2.527,2.527,0,0,0,.625,3.2,2.409,2.409,0,0,1,.16-2.1c.281-.446.718-.825.806-1.345a1.476,1.476,0,0,0-.778-1.431,1.132,1.132,0,0,1-.008.328Z" transform="translate(-256.914 -183.841)" fill="#fff"/>
        <path id="Path_9" data-name="Path 9" d="M259.411,191.477c-.06-.141-.117-.284-.166-.428-.1-.3-.258-.667-.575-.676a.644.644,0,0,0-.277.072,2.26,2.26,0,0,0-1.318,2.213,1.983,1.983,0,0,0,.842,1.384,1.763,1.763,0,0,1-.056-.284,2.26,2.26,0,0,1,1.318-2.213A.729.729,0,0,1,259.411,191.477Z" transform="translate(-250.276 -187.525)" fill="#fff"/>
        <path id="Path_10" data-name="Path 10" d="M249.293,196.336c-2.29.1-5.986-.778-7.807-2.637,1.36,2.893,6.978,4.1,9.417,3.639A1.9,1.9,0,0,1,249.293,196.336Z" transform="translate(-241.486 -189.402)" fill="#fff"/>
        <path id="Path_11" data-name="Path 11" d="M267.6,196.069a2.073,2.073,0,0,1-2.4.4,2.739,2.739,0,0,1-.7-.492,3.36,3.36,0,0,0,1.482,1.59,2,2,0,0,0,2.578-.654A2.237,2.237,0,0,1,267.6,196.069Z" transform="translate(-254.467 -190.686)" fill="#fff"/>
      </g>
      <path id="Path_12" data-name="Path 12" d="M317.888,195.81s-22.619,36.441-32.367,38.327a11.359,11.359,0,0,1-1.708.209,9.989,9.989,0,0,0,2.337-.209c9.739-1.883,32.358-38.327,32.358-38.327l-.5-.179A2.106,2.106,0,0,1,317.888,195.81Z" transform="translate(-191.347 -126.259)" fill="#fff" opacity="0.2"/>
      <path id="Path_13" data-name="Path 13" d="M156.521,195.81s22.619,36.441,32.367,38.327a11.36,11.36,0,0,0,1.708.209,9.988,9.988,0,0,1-2.337-.209C178.52,232.253,155.9,195.81,155.9,195.81l.5-.179A2.1,2.1,0,0,0,156.521,195.81Z" transform="translate(-119.2 -126.259)" fill="#fff" opacity="0.2"/>
      <path id="Path_14" data-name="Path 14" d="M168.423,218.986h0A15.079,15.079,0,0,1,183.5,234.065v6.283H153.344v-6.283A15.079,15.079,0,0,1,168.423,218.986Z" transform="translate(-86.492 -123.517)" fill="#ff9800"/>
      <path id="Path_15" data-name="Path 15" d="M257.88,255.674h0a15.26,15.26,0,0,0-1.644.089c.19,0,.362-.012.544-.012h0a15.079,15.079,0,0,1,15.079,15.079v6.2h1.1v-6.281A15.079,15.079,0,0,0,257.88,255.674Z" transform="translate(-175.792 -160.126)" fill="#fff" opacity="0.2"/>
      <path id="Path_16" data-name="Path 16" d="M239.781,255.674h0a15.254,15.254,0,0,1,1.644.089c-.19,0-.362-.012-.545-.012h0A15.079,15.079,0,0,0,225.8,270.83v6.2h-1.1v-6.281a15.079,15.079,0,0,1,15.079-15.079Z" transform="translate(-158.006 -160.125)" fill="#fff" opacity="0.2"/>
      <rect id="Rectangle_51" data-name="Rectangle 51" width="8.796" height="10.602" rx="4.398" transform="translate(77.533 91.307)" fill="#f8c198"/>
    </g>
  </g>
</svg>
