<svg xmlns="http://www.w3.org/2000/svg" width="17.953" height="11.969" viewBox="0 0 17.953 11.969">
  <path id="openeye" d="M17.845,10.029A10,10,0,0,0,8.977,4.5,10,10,0,0,0,.108,10.03a1.008,1.008,0,0,0,0,.91,10,10,0,0,0,8.868,5.529,10,10,0,0,0,8.868-5.53A1.008,1.008,0,0,0,17.845,10.029ZM8.977,14.973a4.488,4.488,0,1,1,4.488-4.488A4.488,4.488,0,0,1,8.977,14.973Zm0-7.48a2.971,2.971,0,0,0-.789.118A1.491,1.491,0,0,1,6.1,9.7a2.985,2.985,0,1,0,2.874-2.2Z" transform="translate(0 -4.5)" fill="#707070"/>
</svg>
