<svg xmlns="http://www.w3.org/2000/svg" width="89.363" height="63.63" viewBox="0 0 89.363 63.63">
  <path id="Unsplash_Logo_Full_Stacked" d="M9.913,42.794h3.2V53.015A6.284,6.284,0,0,1,6.544,59.6,6.272,6.272,0,0,1,0,53.015V42.794H3.2V53.049a3.2,3.2,0,0,0,3.347,3.418,3.219,3.219,0,0,0,3.369-3.418ZM21.324,47.52a3.775,3.775,0,0,0-3.291,1.715V47.822H15.044v11.4h3.083v-6.56A2.148,2.148,0,0,1,20.258,50.3a2,2,0,0,1,2.11,2.272v6.653h3.083V52.042C25.451,49.537,24.152,47.52,21.324,47.52Zm11.305,4.8-1.694-.348c-.643-.131-1.044-.463-1.044-1.019a1.243,1.243,0,0,1,1.392-1.134,1.491,1.491,0,0,1,1.7,1.274H35.64c-.022-1.554-1.262-3.614-4.31-3.614a3.975,3.975,0,0,0-4.267,3.729c0,1.6,1,2.921,3.2,3.418l1.576.348c.883.186,1.243.6,1.243,1.112,0,.6-.559,1.137-1.579,1.137a1.9,1.9,0,0,1-2.054-1.51H26.7c.152,1.7,1.389,3.872,4.817,3.872,2.989,0,4.5-1.9,4.5-3.754,0-1.681-1.137-3.048-3.39-3.512Zm16.5,1.184c0,3.452-2.154,6-5.376,6a4,4,0,0,1-3.291-1.389V63.63H37.384V47.822h2.989v1.414a4,4,0,0,1,3.5-1.669c3.337,0,5.261,2.551,5.261,5.935Zm-3.036.022c0-2.017-1.243-3.2-2.825-3.2a2.889,2.889,0,0,0-2.853,3.2,2.913,2.913,0,0,0,2.853,3.223c1.579,0,2.831-1.184,2.831-3.223Zm17.753-5.7h2.989v11.4H63.751V57.837A3.713,3.713,0,0,1,60.46,59.5c-3.219,0-5.376-2.548-5.376-6,0-3.384,1.924-5.935,5.261-5.935a4.059,4.059,0,0,1,3.5,1.669Zm-.047,5.7a2.89,2.89,0,0,0-2.85-3.2c-1.576,0-2.828,1.181-2.828,3.2s1.243,3.223,2.828,3.223A2.911,2.911,0,0,0,63.8,53.524Zm-13.232,5.7h3.083V42.794H50.566Zm34.581-11.7a4.082,4.082,0,0,0-3.083,1.243V42.794H78.981V59.22h3.058v-6.7a2.14,2.14,0,0,1,2.132-2.225,2.007,2.007,0,0,1,2.11,2.275v6.65h3.083V52.033c.009-2.492-1.333-4.509-4.217-4.509Zm-10.97,4.795-1.7-.348c-.643-.131-1.041-.463-1.041-1.019a1.243,1.243,0,0,1,1.392-1.134,1.486,1.486,0,0,1,1.7,1.274h2.66c-.022-1.554-1.262-3.614-4.313-3.614a3.974,3.974,0,0,0-4.264,3.729c0,1.6,1,2.921,3.2,3.418l1.579.348c.879.186,1.243.6,1.243,1.112,0,.6-.556,1.137-1.579,1.137A1.9,1.9,0,0,1,71,55.712H68.241c.152,1.7,1.389,3.872,4.82,3.872,2.989,0,4.5-1.9,4.5-3.754,0-1.681-1.134-3.048-3.381-3.512ZM63.959,16.206H52.418V26.414H38.863V16.206H27.321V36.632H63.959ZM52.418,0H38.863V10.214H52.418Z" fill="#fff"/>
</svg>
