<svg xmlns="http://www.w3.org/2000/svg" width="20.474" height="20.479" viewBox="0 0 20.474 20.479">
  <path id="Icon_awesome-rocket" data-name="Icon awesome-rocket" d="M20.2.764a.636.636,0,0,0-.488-.488A14.516,14.516,0,0,0,16.415,0c-4.128,0-6.6,2.208-8.451,5.12H3.8a1.92,1.92,0,0,0-1.715,1.06L.1,10.131a.96.96,0,0,0,.86,1.388H5.115l-.9.9a1.28,1.28,0,0,0,0,1.81l2.036,2.036a1.28,1.28,0,0,0,1.81,0l.9-.9v4.153a.96.96,0,0,0,1.388.86L14.3,18.4a1.916,1.916,0,0,0,1.06-1.716V12.511c2.9-1.852,5.12-4.336,5.12-8.443A14.188,14.188,0,0,0,20.2.764ZM15.361,6.72a1.6,1.6,0,1,1,1.6-1.6,1.6,1.6,0,0,1-1.6,1.6Z" transform="translate(-0.004)" fill="#3cb46e"/>
</svg>
